<svg xmlns="http://www.w3.org/2000/svg" xmlns:xlink="http://www.w3.org/1999/xlink" width="1000" height="434.2"><rect width="1000" height="434.2" rx="0" ry="0" class="a"/><svg height="434.2" viewBox="0 0 100 43.42" width="1000" xmlns="http://www.w3.org/2000/svg" xmlns:xlink="http://www.w3.org/1999/xlink"><style>@keyframes f{0%{transform:translateX(0)}.4%{transform:translateX(-100px)}12.3%{transform:translateX(-200px)}13.1%{transform:translateX(-300px)}19.9%{transform:translateX(-400px)}20.8%{transform:translateX(-500px)}21.6%{transform:translateX(-600px)}22.7%{transform:translateX(-700px)}32.2%{transform:translateX(-800px)}33.2%{transform:translateX(-900px)}35.6%{transform:translateX(-1000px)}38.1%{transform:translateX(-1100px)}39.3%{transform:translateX(-1200px)}40.2%{transform:translateX(-1300px)}43.3%{transform:translateX(-1400px)}43.5%{transform:translateX(-1500px)}55%{transform:translateX(-1600px)}55.2%{transform:translateX(-1900px)}80.5%{transform:translateX(-2000px)}82.2%{transform:translateX(-2100px)}82.5%{transform:translateX(-2500px)}97.9%{transform:translateX(-2600px)}99.7%{transform:translateX(-2700px)}to{transform:translateX(-3000px)}}.a{fill:#282d35}.c{fill:#b9c0cb;white-space:pre}</style><g font-family="Monaco,Consolas,Menlo,'Bitstream Vera Sans Mono','Powerline Symbols',monospace" font-size="1.67"><defs><symbol id="1"><text y="1.67" class="c">[user@user</text><text x="11.022" y="1.67" class="c">sudont]$</text></symbol><symbol id="2"><text y="1.67" class="c">[user@user</text><text x="11.022" y="1.67" class="c">sudont]$</text><text x="20.04" y="1.67" class="c">./sudont</text><text x="29.058" y="1.67" class="c">whoami</text></symbol><symbol id="3"><text y="1.67" class="c">[sudo]</text><text x="7.014" y="1.67" class="c">password</text><text x="16.032" y="1.67" class="c">for</text><text x="20.04" y="1.67" class="c">user:</text></symbol><symbol id="4"><text y="1.67" class="c">No</text></symbol><symbol id="5"><text y="1.67" class="c">user</text></symbol><symbol id="6"><text y="1.67" class="c">Stop</text><text x="5.01" y="1.67" class="c">trying</text></symbol><symbol id="7"><text y="1.67" class="c">Nah</text></symbol><symbol id="a"><path fill="transparent" d="M0 0h100v21H0z"/></symbol><symbol id="b"><path fill="#6f7683" d="M0 0h1.102v2.171H0z"/></symbol></defs><path class="a" d="M0 0h100v43.42H0z"/><g style="animation-duration:12.651507s;animation-iteration-count:infinite;animation-name:f;animation-timing-function:steps(1,end)"><svg width="3100"><svg><use xlink:href="#a"/><use xlink:href="#b" x="-.004"/></svg><svg x="100"><use xlink:href="#a"/><use xlink:href="#b" x="19.996"/><use xlink:href="#1"/></svg><svg x="200"><use xlink:href="#a"/><use xlink:href="#b" x="20.996"/><text y="1.67" class="c">[user@user</text><text x="11.022" y="1.67" class="c">sudont]$</text><text x="20.04" y="1.67" class="c">.</text></svg><svg x="300"><use xlink:href="#a"/><use xlink:href="#b" x="21.996"/><text y="1.67" class="c">[user@user</text><text x="11.022" y="1.67" class="c">sudont]$</text><text x="20.04" y="1.67" class="c">./</text></svg><svg x="400"><use xlink:href="#a"/><use xlink:href="#b" x="22.996"/><text y="1.67" class="c">[user@user</text><text x="11.022" y="1.67" class="c">sudont]$</text><text x="20.04" y="1.67" class="c">./s</text></svg><svg x="500"><use xlink:href="#a"/><use xlink:href="#b" x="23.996"/><text y="1.67" class="c">[user@user</text><text x="11.022" y="1.67" class="c">sudont]$</text><text x="20.04" y="1.67" class="c">./su</text></svg><svg x="600"><use xlink:href="#a"/><use xlink:href="#b" x="24.996"/><text y="1.67" class="c">[user@user</text><text x="11.022" y="1.67" class="c">sudont]$</text><text x="20.04" y="1.67" class="c">./sud</text></svg><svg x="700"><use xlink:href="#a"/><use xlink:href="#b" x="28.996"/><text y="1.67" class="c">[user@user</text><text x="11.022" y="1.67" class="c">sudont]$</text><text x="20.04" y="1.67" class="c">./sudont</text></svg><svg x="800"><use xlink:href="#a"/><use xlink:href="#b" x="29.996"/><text y="1.67" class="c">[user@user</text><text x="11.022" y="1.67" class="c">sudont]$</text><text x="20.04" y="1.67" class="c">./sudont</text><text x="29.058" y="1.67" class="c">w</text></svg><svg x="900"><use xlink:href="#a"/><use xlink:href="#b" x="30.996"/><text y="1.67" class="c">[user@user</text><text x="11.022" y="1.67" class="c">sudont]$</text><text x="20.04" y="1.67" class="c">./sudont</text><text x="29.058" y="1.67" class="c">wh</text></svg><svg x="1000"><use xlink:href="#a"/><use xlink:href="#b" x="31.996"/><text y="1.67" class="c">[user@user</text><text x="11.022" y="1.67" class="c">sudont]$</text><text x="20.04" y="1.67" class="c">./sudont</text><text x="29.058" y="1.67" class="c">who</text></svg><svg x="1100"><use xlink:href="#a"/><use xlink:href="#b" x="32.996"/><text y="1.67" class="c">[user@user</text><text x="11.022" y="1.67" class="c">sudont]$</text><text x="20.04" y="1.67" class="c">./sudont</text><text x="29.058" y="1.67" class="c">whoa</text></svg><svg x="1200"><use xlink:href="#a"/><use xlink:href="#b" x="33.996"/><text y="1.67" class="c">[user@user</text><text x="11.022" y="1.67" class="c">sudont]$</text><text x="20.04" y="1.67" class="c">./sudont</text><text x="29.058" y="1.67" class="c">whoam</text></svg><svg x="1300"><use xlink:href="#a"/><use xlink:href="#b" x="34.996"/><use xlink:href="#2"/></svg><svg x="1400"><use xlink:href="#a"/><use xlink:href="#b" x="-.004" y="2.146"/><use xlink:href="#2"/></svg><svg x="1500"><use xlink:href="#a"/><use xlink:href="#b" x="25.996" y="2.146"/><use xlink:href="#2"/><use xlink:href="#3" y="2.171"/></svg><svg x="1600"><use xlink:href="#a"/><use xlink:href="#b" x="-.004" y="4.317"/><use xlink:href="#2"/><use xlink:href="#3" y="2.171"/></svg><svg x="1700"><use xlink:href="#a"/><use xlink:href="#b" x="-.004" y="6.488"/><use xlink:href="#2"/><use xlink:href="#3" y="2.171"/><use xlink:href="#4" y="4.342"/></svg><svg x="1800"><use xlink:href="#a"/><use xlink:href="#b" x="-.004" y="8.659"/><use xlink:href="#2"/><use xlink:href="#3" y="2.171"/><use xlink:href="#4" y="4.342"/><use xlink:href="#5" y="6.513"/></svg><svg x="1900"><use xlink:href="#a"/><use xlink:href="#b" x="19.996" y="8.659"/><use xlink:href="#2"/><use xlink:href="#3" y="2.171"/><use xlink:href="#4" y="4.342"/><use xlink:href="#5" y="6.513"/><use xlink:href="#1" y="8.684"/></svg><svg x="2000"><use xlink:href="#a"/><use xlink:href="#b" x="34.996" y="8.659"/><use xlink:href="#2"/><use xlink:href="#3" y="2.171"/><use xlink:href="#4" y="4.342"/><use xlink:href="#5" y="6.513"/><use xlink:href="#2" y="8.684"/></svg><svg x="2100"><use xlink:href="#a"/><use xlink:href="#b" x="-.004" y="10.83"/><use xlink:href="#2"/><use xlink:href="#3" y="2.171"/><use xlink:href="#4" y="4.342"/><use xlink:href="#5" y="6.513"/><use xlink:href="#2" y="8.684"/></svg><svg x="2200"><use xlink:href="#a"/><use xlink:href="#b" x="-.004" y="13.001"/><use xlink:href="#2"/><use xlink:href="#3" y="2.171"/><use xlink:href="#4" y="4.342"/><use xlink:href="#5" y="6.513"/><use xlink:href="#2" y="8.684"/><use xlink:href="#6" y="10.855"/></svg><svg x="2300"><use xlink:href="#a"/><use xlink:href="#b" x="-.004" y="15.172"/><use xlink:href="#2"/><use xlink:href="#3" y="2.171"/><use xlink:href="#4" y="4.342"/><use xlink:href="#5" y="6.513"/><use xlink:href="#2" y="8.684"/><use xlink:href="#6" y="10.855"/><use xlink:href="#5" y="13.026"/></svg><svg x="2400"><use xlink:href="#a"/><use xlink:href="#b" x="-.004" y="15.172"/><use xlink:href="#2"/><use xlink:href="#3" y="2.171"/><use xlink:href="#4" y="4.342"/><use xlink:href="#5" y="6.513"/><use xlink:href="#2" y="8.684"/><use xlink:href="#6" y="10.855"/><use xlink:href="#5" y="13.026"/></svg><svg x="2500"><use xlink:href="#a"/><use xlink:href="#b" x="19.996" y="15.172"/><use xlink:href="#2"/><use xlink:href="#3" y="2.171"/><use xlink:href="#4" y="4.342"/><use xlink:href="#5" y="6.513"/><use xlink:href="#2" y="8.684"/><use xlink:href="#6" y="10.855"/><use xlink:href="#5" y="13.026"/><use xlink:href="#1" y="15.197"/></svg><svg x="2600"><use xlink:href="#a"/><use xlink:href="#b" x="34.996" y="15.172"/><use xlink:href="#2"/><use xlink:href="#3" y="2.171"/><use xlink:href="#4" y="4.342"/><use xlink:href="#5" y="6.513"/><use xlink:href="#2" y="8.684"/><use xlink:href="#6" y="10.855"/><use xlink:href="#5" y="13.026"/><use xlink:href="#2" y="15.197"/></svg><svg x="2700"><use xlink:href="#a"/><use xlink:href="#b" x="-.004" y="17.343"/><use xlink:href="#2"/><use xlink:href="#3" y="2.171"/><use xlink:href="#4" y="4.342"/><use xlink:href="#5" y="6.513"/><use xlink:href="#2" y="8.684"/><use xlink:href="#6" y="10.855"/><use xlink:href="#5" y="13.026"/><use xlink:href="#2" y="15.197"/></svg><svg x="2800"><use xlink:href="#a"/><use xlink:href="#b" x="-.004" y="19.514"/><use xlink:href="#2"/><use xlink:href="#3" y="2.171"/><use xlink:href="#4" y="4.342"/><use xlink:href="#5" y="6.513"/><use xlink:href="#2" y="8.684"/><use xlink:href="#6" y="10.855"/><use xlink:href="#5" y="13.026"/><use xlink:href="#2" y="15.197"/><use xlink:href="#7" y="17.368"/></svg><svg x="2900"><use xlink:href="#a"/><use xlink:href="#b" x="-.004" y="21.685"/><use xlink:href="#2"/><use xlink:href="#3" y="2.171"/><use xlink:href="#4" y="4.342"/><use xlink:href="#5" y="6.513"/><use xlink:href="#2" y="8.684"/><use xlink:href="#6" y="10.855"/><use xlink:href="#5" y="13.026"/><use xlink:href="#2" y="15.197"/><use xlink:href="#7" y="17.368"/><use xlink:href="#5" y="19.539"/></svg><svg x="3000"><use xlink:href="#a"/><use xlink:href="#b" x="19.996" y="21.685"/><use xlink:href="#2"/><use xlink:href="#3" y="2.171"/><use xlink:href="#4" y="4.342"/><use xlink:href="#5" y="6.513"/><use xlink:href="#2" y="8.684"/><use xlink:href="#6" y="10.855"/><use xlink:href="#5" y="13.026"/><use xlink:href="#2" y="15.197"/><use xlink:href="#7" y="17.368"/><use xlink:href="#5" y="19.539"/><use xlink:href="#1" y="21.71"/></svg></svg></g></g></svg></svg>